<svg width="36" height="36" viewBox="0 0 36 36" fill="none" xmlns="http://www.w3.org/2000/svg">
<g id="google-svgrepo-com 1" clip-path="url(#clip0_86_3139)">
<path id="Vector" d="M7.89967 14.6468C9.29855 10.4079 13.282 7.36364 18.0004 7.36364C20.5367 7.36364 22.8276 8.26364 24.6276 9.73636L29.864 4.5C26.6731 1.71818 22.5822 0 18.0004 0C10.9055 0 4.79699 4.04745 1.86035 9.97504L7.89967 14.6468Z" fill="#EA4335"/>
<path id="Vector_2" d="M24.0613 27.0189C22.4266 28.0744 20.3494 28.6364 18.0003 28.6364C13.3 28.6364 9.32893 25.6153 7.91572 21.4018L1.85645 26.0025C4.78944 31.9404 10.8978 36 18.0003 36C22.3995 36 26.6033 34.4361 29.7515 31.4994L24.0613 27.0189Z" fill="#34A853"/>
<path id="Vector_3" d="M29.7513 31.4994C33.0438 28.4282 35.1818 23.8555 35.1818 18C35.1818 16.9364 35.0182 15.7909 34.7727 14.7273H18V21.6818H27.6545C27.1782 24.0204 25.8995 25.8318 24.0611 27.0189L29.7513 31.4994Z" fill="#4A90E2"/>
<path id="Vector_4" d="M7.91547 21.4018C7.55749 20.3345 7.36364 19.1906 7.36364 18C7.36364 16.8274 7.55165 15.7002 7.8993 14.6468L1.85999 9.97504C0.654881 12.3906 0 15.1131 0 18C0 20.8793 0.667171 23.5953 1.85619 26.0025L7.91547 21.4018Z" fill="#FBBC05"/>
</g>
<defs>
<clipPath id="clip0_86_3139">
<rect width="36" height="36" fill="white"/>
</clipPath>
</defs>
</svg>
